<svg xmlns="http://www.w3.org/2000/svg" xmlns:xlink="http://www.w3.org/1999/xlink" width="1080" zoomAndPan="magnify" viewBox="0 0 810 809.999993" height="1080" preserveAspectRatio="xMidYMid meet" version="1.0"><defs><clipPath id="id1"><path d="M 511 187 L 687 187 L 687 364 L 511 364 Z M 511 187 " clip-rule="nonzero"/></clipPath><clipPath id="id2"><path d="M 697.683594 199.824219 L 638.371094 676.902344 L 101.753906 610.183594 L 161.066406 133.109375 Z M 697.683594 199.824219 " clip-rule="nonzero"/></clipPath><clipPath id="id3"><path d="M 697.683594 199.824219 L 638.371094 676.902344 L 101.753906 610.183594 L 161.066406 133.109375 Z M 697.683594 199.824219 " clip-rule="nonzero"/></clipPath><clipPath id="id4"><path d="M 181 477 L 333 477 L 333 629 L 181 629 Z M 181 477 " clip-rule="nonzero"/></clipPath><clipPath id="id5"><path d="M 697.683594 199.824219 L 638.371094 676.902344 L 101.753906 610.183594 L 161.066406 133.109375 Z M 697.683594 199.824219 " clip-rule="nonzero"/></clipPath><clipPath id="id6"><path d="M 697.683594 199.824219 L 638.371094 676.902344 L 101.753906 610.183594 L 161.066406 133.109375 Z M 697.683594 199.824219 " clip-rule="nonzero"/></clipPath><clipPath id="id7"><path d="M 533 464 L 616 464 L 616 547 L 533 547 Z M 533 464 " clip-rule="nonzero"/></clipPath><clipPath id="id8"><path d="M 697.683594 199.824219 L 638.371094 676.902344 L 101.753906 610.183594 L 161.066406 133.109375 Z M 697.683594 199.824219 " clip-rule="nonzero"/></clipPath><clipPath id="id9"><path d="M 697.683594 199.824219 L 638.371094 676.902344 L 101.753906 610.183594 L 161.066406 133.109375 Z M 697.683594 199.824219 " clip-rule="nonzero"/></clipPath><clipPath id="id10"><path d="M 349 186 L 432 186 L 432 269 L 349 269 Z M 349 186 " clip-rule="nonzero"/></clipPath><clipPath id="id11"><path d="M 697.683594 199.824219 L 638.371094 676.902344 L 101.753906 610.183594 L 161.066406 133.109375 Z M 697.683594 199.824219 " clip-rule="nonzero"/></clipPath><clipPath id="id12"><path d="M 697.683594 199.824219 L 638.371094 676.902344 L 101.753906 610.183594 L 161.066406 133.109375 Z M 697.683594 199.824219 " clip-rule="nonzero"/></clipPath><clipPath id="id13"><path d="M 151 184 L 233 184 L 233 266 L 151 266 Z M 151 184 " clip-rule="nonzero"/></clipPath><clipPath id="id14"><path d="M 697.683594 199.824219 L 638.371094 676.902344 L 101.753906 610.183594 L 161.066406 133.109375 Z M 697.683594 199.824219 " clip-rule="nonzero"/></clipPath><clipPath id="id15"><path d="M 697.683594 199.824219 L 638.371094 676.902344 L 101.753906 610.183594 L 161.066406 133.109375 Z M 697.683594 199.824219 " clip-rule="nonzero"/></clipPath><clipPath id="id16"><path d="M 223 256 L 534 256 L 534 501 L 223 501 Z M 223 256 " clip-rule="nonzero"/></clipPath><clipPath id="id17"><path d="M 697.683594 199.824219 L 638.371094 676.902344 L 101.753906 610.183594 L 161.066406 133.109375 Z M 697.683594 199.824219 " clip-rule="nonzero"/></clipPath><clipPath id="id18"><path d="M 697.683594 199.824219 L 638.371094 676.902344 L 101.753906 610.183594 L 161.066406 133.109375 Z M 697.683594 199.824219 " clip-rule="nonzero"/></clipPath></defs><g clip-path="url(#id1)"><g clip-path="url(#id2)"><g clip-path="url(#id3)"><path fill="#d42323" d="M 511.832031 264.972656 C 505.851562 313.058594 540.113281 357.042969 588.203125 363.023438 C 636.292969 369.003906 680.28125 334.742188 686.261719 286.65625 C 692.238281 238.570312 657.980469 194.582031 609.890625 188.605469 C 561.800781 182.625 517.808594 216.882812 511.832031 264.972656 Z M 662.195312 283.664062 C 657.867188 318.480469 626.019531 343.289062 591.195312 338.960938 C 556.378906 334.628906 531.566406 302.785156 535.898438 267.960938 C 540.226562 233.140625 572.074219 208.339844 606.898438 212.667969 C 641.714844 216.996094 666.523438 248.851562 662.195312 283.664062 Z M 662.195312 283.664062 " fill-opacity="1" fill-rule="nonzero"/></g></g></g><g clip-path="url(#id4)"><g clip-path="url(#id5)"><g clip-path="url(#id6)"><path fill="#d42323" d="M 332.246094 562.539062 C 337.375 521.273438 307.972656 483.523438 266.707031 478.394531 C 225.441406 473.261719 187.695312 502.664062 182.5625 543.929688 C 177.433594 585.195312 206.828125 622.945312 248.097656 628.074219 C 289.363281 633.207031 327.117188 603.804688 332.246094 562.539062 Z M 206.621094 546.921875 C 210.105469 518.921875 235.714844 498.976562 263.707031 502.457031 C 291.710938 505.9375 311.65625 531.546875 308.175781 559.546875 C 304.695312 587.546875 279.082031 607.492188 251.082031 604.007812 C 223.09375 600.53125 203.140625 574.921875 206.621094 546.921875 Z M 206.621094 546.921875 " fill-opacity="1" fill-rule="nonzero"/></g></g></g><g clip-path="url(#id7)"><g clip-path="url(#id8)"><g clip-path="url(#id9)"><path fill="#d82525" d="M 534.179688 500.402344 C 531.414062 522.65625 547.269531 543.015625 569.527344 545.78125 C 591.78125 548.550781 612.140625 532.691406 614.910156 510.4375 C 617.675781 488.183594 601.816406 467.824219 579.5625 465.058594 C 557.308594 462.292969 536.945312 478.140625 534.179688 500.402344 Z M 590.84375 507.445312 C 589.726562 516.433594 581.507812 522.835938 572.519531 521.71875 C 563.527344 520.601562 557.128906 512.382812 558.246094 503.394531 C 559.363281 494.40625 567.582031 488.003906 576.570312 489.121094 C 585.558594 490.242188 591.960938 498.457031 590.84375 507.445312 Z M 590.84375 507.445312 " fill-opacity="1" fill-rule="nonzero"/></g></g></g><g clip-path="url(#id10)"><g clip-path="url(#id11)"><g clip-path="url(#id12)"><path fill="#d82525" d="M 385.425781 267.882812 C 407.679688 270.648438 428.035156 254.789062 430.800781 232.539062 C 433.570312 210.285156 417.71875 189.925781 395.460938 187.15625 C 373.207031 184.390625 352.847656 200.246094 350.078125 222.5 C 347.3125 244.753906 363.171875 265.113281 385.425781 267.882812 Z M 392.46875 211.222656 C 401.453125 212.339844 407.859375 220.558594 406.742188 229.546875 C 405.625 238.535156 397.398438 244.933594 388.417969 243.816406 C 379.429688 242.699219 373.027344 234.480469 374.144531 225.492188 C 375.261719 216.503906 383.480469 210.105469 392.46875 211.222656 Z M 392.46875 211.222656 " fill-opacity="1" fill-rule="nonzero"/></g></g></g><g clip-path="url(#id13)"><g clip-path="url(#id14)"><g clip-path="url(#id15)"><path fill="#d82525" d="M 232.210938 230.207031 C 234.976562 207.953125 219.121094 187.59375 196.863281 184.824219 C 174.609375 182.058594 154.25 197.914062 151.480469 220.167969 C 148.714844 242.421875 164.574219 262.78125 186.828125 265.550781 C 209.082031 268.316406 229.445312 252.460938 232.210938 230.207031 Z M 175.546875 223.160156 C 176.664062 214.171875 184.882812 207.773438 193.871094 208.890625 C 202.859375 210.007812 209.261719 218.226562 208.144531 227.214844 C 207.027344 236.203125 198.808594 242.601562 189.820312 241.484375 C 180.832031 240.367188 174.429688 232.148438 175.546875 223.160156 Z M 175.546875 223.160156 " fill-opacity="1" fill-rule="nonzero"/></g></g></g><g clip-path="url(#id16)"><g clip-path="url(#id17)"><g clip-path="url(#id18)"><path fill="#949090" d="M 320.425781 496.648438 C 325.015625 501.527344 332.6875 501.753906 337.558594 497.160156 L 372.363281 464.382812 C 379.160156 468.835938 387.007812 471.894531 395.601562 472.964844 C 415.078125 475.386719 433.425781 467.214844 444.988281 453.019531 L 516.0625 487.292969 C 522.09375 490.207031 529.339844 487.671875 532.253906 481.640625 C 535.160156 475.597656 532.632812 468.355469 526.597656 465.457031 L 455.777344 431.304688 C 456.257812 429.316406 456.648438 427.296875 456.90625 425.21875 C 458.183594 414.949219 456.46875 405.003906 452.53125 396.175781 L 514.464844 357.339844 C 520.140625 353.773438 521.859375 346.296875 518.296875 340.625 C 514.738281 334.953125 507.253906 333.238281 501.582031 336.792969 L 438.007812 376.65625 C 430.773438 370.464844 421.859375 366.144531 411.910156 364.394531 L 404.660156 287.023438 C 404.035156 280.355469 398.121094 275.457031 391.457031 276.085938 C 385.683594 276.625 381.242188 281.125 380.558594 286.648438 C 380.449219 287.507812 380.433594 288.390625 380.515625 289.289062 L 387.65625 365.511719 C 379.328125 367.84375 371.730469 372.121094 365.421875 377.863281 L 244.515625 260.015625 C 239.722656 255.335938 232.042969 255.433594 227.367188 260.234375 C 225.453125 262.203125 224.335938 264.660156 224.019531 267.191406 C 223.566406 270.824219 224.757812 274.625 227.585938 277.378906 L 351.40625 398.070312 C 349.695312 402.347656 348.441406 406.878906 347.847656 411.660156 C 346.257812 424.445312 349.25 436.742188 355.488281 446.96875 L 320.929688 479.515625 C 318.785156 481.527344 317.542969 484.132812 317.207031 486.835938 C 316.785156 490.296875 317.84375 493.914062 320.425781 496.648438 Z M 371.917969 414.652344 C 374.007812 397.855469 389.367188 385.890625 406.167969 387.980469 C 422.964844 390.070312 434.929688 405.429688 432.839844 422.226562 C 430.753906 439.019531 415.390625 450.988281 398.59375 448.898438 C 381.792969 446.8125 369.832031 431.445312 371.917969 414.652344 Z M 371.917969 414.652344 " fill-opacity="1" fill-rule="nonzero"/></g></g></g></svg>